<svg width="41" height="37" viewBox="0 0 41 37" fill="none" xmlns="http://www.w3.org/2000/svg">
<path d="M1 1H40V36H1V1Z" fill="#00856F"/>
<path d="M5 26.088V9.28796H10.16C13.12 9.28796 15.296 10.04 16.688 11.544C18.096 13.048 18.8 15.112 18.8 17.736C18.8 20.312 18.096 22.352 16.688 23.856C15.296 25.344 13.12 26.088 10.16 26.088H5ZM7.016 24.408H10.112C11.744 24.408 13.04 24.144 14 23.616C14.976 23.072 15.672 22.304 16.088 21.312C16.504 20.304 16.712 19.112 16.712 17.736C16.712 16.328 16.504 15.12 16.088 14.112C15.672 13.104 14.976 12.328 14 11.784C13.04 11.24 11.744 10.968 10.112 10.968H7.016V24.408Z" fill="white"/>
<path d="M29.132 26.376C27.436 26.376 25.98 26.016 24.764 25.296C23.548 24.56 22.612 23.544 21.956 22.248C21.3 20.936 20.972 19.424 20.972 17.712C20.972 16 21.3 14.488 21.956 13.176C22.612 11.864 23.548 10.84 24.764 10.104C25.98 9.368 27.436 9 29.132 9C31.148 9 32.796 9.504 34.076 10.512C35.372 11.504 36.18 12.904 36.5 14.712H33.116C32.908 13.8 32.46 13.088 31.772 12.576C31.1 12.048 30.204 11.784 29.084 11.784C27.532 11.784 26.316 12.312 25.436 13.368C24.556 14.424 24.116 15.872 24.116 17.712C24.116 19.552 24.556 21 25.436 22.056C26.316 23.096 27.532 23.616 29.084 23.616C30.204 23.616 31.1 23.376 31.772 22.896C32.46 22.4 32.908 21.72 33.116 20.856H36.5C36.18 22.584 35.372 23.936 34.076 24.912C32.796 25.888 31.148 26.376 29.132 26.376Z" fill="white"/>
<path d="M1 0.5H0.5V1V36V36.5H1H40H40.5V36V1V0.5H40H1Z" stroke="white"/>
</svg>
